<?xml version="1.0" standalone="no"?>
<!DOCTYPE svg PUBLIC "-//W3C//DTD SVG 20010904//EN"
 "http://www.w3.org/TR/2001/REC-SVG-20010904/DTD/svg10.dtd">
<svg version="1.0" xmlns="http://www.w3.org/2000/svg"
 width="2400.000000pt" height="2400.000000pt" viewBox="0 0 2400.000000 2400.000000"
 preserveAspectRatio="xMidYMid meet">
<metadata>
Created by potrace 1.13, written by Peter Selinger 2001-2015
</metadata>
<g transform="translate(0.000000,2400.000000) scale(0.100000,-0.100000)"
fill="#000000" stroke="none">
<path d="M11719 22986 c-3 -3 -117 -10 -255 -16 -320 -15 -463 -26 -764 -60
-154 -17 -437 -58 -555 -79 -27 -5 -79 -15 -115 -21 -36 -6 -85 -16 -110 -20
-25 -5 -70 -14 -100 -20 -59 -11 -123 -24 -195 -40 -25 -5 -64 -14 -87 -19
-24 -6 -61 -14 -83 -20 -60 -15 -115 -29 -162 -41 -96 -23 -120 -29 -158 -40
-22 -7 -55 -14 -73 -17 -18 -3 -35 -9 -38 -14 -3 -5 -18 -9 -34 -9 -16 0 -32
-4 -35 -10 -3 -5 -17 -10 -31 -10 -13 0 -32 -4 -42 -9 -9 -5 -37 -15 -62 -21
-85 -24 -175 -52 -192 -61 -10 -5 -27 -9 -37 -9 -11 0 -23 -4 -26 -10 -3 -5
-17 -10 -30 -10 -13 0 -27 -4 -30 -10 -3 -5 -17 -10 -30 -10 -13 0 -27 -4 -30
-10 -3 -5 -17 -10 -30 -10 -13 0 -26 -4 -29 -8 -3 -4 -28 -14 -56 -22 -28 -8
-53 -18 -56 -22 -3 -4 -14 -8 -25 -8 -10 0 -27 -4 -37 -9 -23 -12 -60 -26
-102 -41 -35 -12 -56 -20 -107 -41 -16 -7 -37 -15 -48 -19 -11 -4 -33 -13 -50
-20 -33 -14 -70 -29 -100 -40 -28 -11 -147 -62 -213 -91 -23 -10 -61 -28 -85
-38 -209 -93 -688 -333 -839 -419 -21 -12 -54 -31 -73 -42 -19 -11 -51 -29
-70 -40 -19 -11 -50 -29 -69 -39 -18 -11 -64 -38 -102 -61 -38 -24 -78 -48
-89 -54 -63 -34 -503 -325 -626 -413 -37 -27 -95 -68 -130 -92 -35 -25 -66
-47 -69 -51 -3 -3 -21 -17 -40 -30 -19 -14 -42 -30 -50 -37 -8 -7 -44 -35 -80
-63 -36 -28 -72 -56 -80 -63 -8 -7 -35 -28 -60 -47 -25 -19 -47 -37 -50 -40
-3 -3 -30 -25 -60 -50 -30 -25 -57 -47 -60 -50 -3 -3 -30 -25 -60 -50 -30 -25
-57 -47 -60 -50 -3 -3 -39 -34 -80 -70 -41 -36 -77 -67 -80 -70 -3 -3 -57 -52
-120 -110 -148 -135 -525 -512 -660 -660 -58 -63 -107 -117 -110 -120 -3 -3
-34 -39 -70 -80 -36 -41 -67 -77 -70 -80 -3 -3 -25 -30 -50 -60 -25 -30 -47
-57 -50 -60 -3 -3 -25 -30 -50 -60 -25 -30 -47 -57 -50 -60 -3 -3 -17 -21 -32
-42 -15 -20 -33 -42 -40 -50 -7 -7 -42 -51 -77 -98 -90 -119 -125 -164 -132
-170 -3 -3 -25 -34 -50 -69 -24 -35 -65 -93 -92 -130 -88 -123 -379 -563 -413
-626 -6 -11 -30 -51 -54 -89 -23 -38 -50 -84 -61 -102 -10 -19 -28 -50 -39
-69 -11 -19 -29 -51 -40 -70 -11 -19 -30 -52 -42 -72 -34 -61 -113 -213 -222
-430 -104 -208 -175 -357 -229 -483 -8 -19 -27 -61 -41 -93 -14 -32 -26 -60
-26 -62 0 -3 -9 -27 -21 -53 -12 -26 -25 -57 -30 -69 -5 -13 -14 -35 -20 -50
-7 -16 -16 -38 -20 -50 -5 -13 -13 -33 -18 -45 -5 -13 -14 -39 -21 -58 -12
-34 -21 -58 -39 -102 -5 -13 -15 -41 -22 -63 -7 -22 -16 -44 -19 -50 -4 -5
-12 -30 -20 -55 -7 -25 -17 -49 -22 -54 -4 -6 -8 -20 -8 -32 0 -13 -4 -26 -10
-29 -5 -3 -10 -17 -10 -30 0 -13 -4 -27 -10 -30 -5 -3 -10 -17 -10 -30 0 -13
-4 -27 -10 -30 -5 -3 -10 -15 -10 -26 0 -10 -4 -27 -9 -37 -5 -9 -15 -37 -21
-62 -7 -25 -16 -54 -20 -65 -4 -11 -13 -40 -20 -65 -28 -101 -33 -116 -41
-132 -5 -10 -9 -29 -9 -42 0 -14 -4 -27 -9 -30 -5 -3 -11 -20 -14 -38 -3 -18
-10 -51 -17 -73 -12 -42 -22 -81 -40 -155 -6 -25 -15 -62 -20 -82 -29 -112
-42 -170 -60 -258 -5 -25 -14 -67 -20 -95 -25 -115 -59 -294 -80 -420 -5 -27
-14 -81 -20 -120 -37 -222 -82 -603 -99 -845 -47 -646 -47 -1124 0 -1770 17
-242 62 -623 99 -845 6 -38 15 -92 20 -120 21 -126 55 -305 80 -420 6 -27 15
-70 20 -95 20 -98 38 -176 80 -342 6 -21 14 -55 19 -75 5 -21 15 -56 21 -78 7
-22 14 -55 17 -73 3 -18 9 -35 14 -38 5 -3 9 -16 9 -30 0 -13 4 -32 9 -42 5
-9 15 -37 21 -62 21 -76 32 -114 40 -135 4 -11 13 -40 20 -65 6 -25 16 -53 21
-62 5 -10 9 -27 9 -37 0 -11 5 -23 10 -26 6 -3 10 -17 10 -30 0 -13 5 -27 10
-30 6 -3 10 -17 10 -30 0 -13 4 -26 8 -29 4 -3 14 -28 22 -56 8 -28 18 -53 22
-56 4 -3 8 -15 8 -28 0 -12 4 -26 8 -31 4 -6 14 -28 21 -50 7 -22 17 -50 22
-62 18 -45 27 -69 39 -103 12 -35 20 -56 41 -107 7 -16 16 -38 20 -50 17 -45
27 -69 48 -115 12 -26 21 -50 21 -53 0 -2 12 -30 26 -62 14 -32 33 -74 41 -93
91 -212 349 -734 451 -912 12 -21 31 -54 42 -73 11 -19 29 -51 40 -70 11 -19
29 -50 39 -69 11 -18 38 -64 61 -102 24 -38 48 -78 54 -89 22 -41 94 -152 231
-358 77 -116 145 -217 150 -225 6 -9 15 -23 22 -31 58 -78 84 -113 113 -156
18 -27 36 -52 40 -55 3 -3 17 -21 30 -40 14 -19 30 -42 37 -50 7 -8 35 -44 63
-80 28 -36 56 -72 63 -80 7 -8 28 -35 47 -60 19 -24 41 -51 48 -58 7 -8 25
-30 40 -50 33 -44 46 -60 152 -182 45 -52 94 -108 108 -125 14 -16 62 -70 106
-120 74 -83 118 -129 366 -388 47 -49 124 -125 173 -169 73 -67 90 -78 102
-68 8 7 15 25 15 41 0 16 4 37 9 47 9 16 21 61 41 142 5 19 15 60 24 90 8 30
20 80 27 110 7 30 16 59 21 65 4 5 8 26 8 46 0 21 4 41 10 44 5 3 10 17 10 30
0 13 4 27 10 30 5 3 10 21 10 40 0 19 4 37 10 40 6 3 10 17 10 30 0 13 5 27
10 30 6 3 10 17 10 30 0 13 4 27 10 30 6 3 10 17 10 30 0 13 4 27 10 30 5 3
10 17 10 30 0 13 4 27 10 30 5 3 10 17 10 30 0 13 4 27 10 30 5 3 10 17 10 30
0 13 4 27 10 30 6 3 10 17 10 30 0 13 4 27 10 30 5 3 10 17 10 30 0 13 4 27
10 30 6 3 10 17 10 30 0 13 4 27 10 30 5 3 10 17 10 30 0 13 4 27 10 30 5 3
10 17 10 30 0 13 5 27 10 30 6 3 10 15 10 25 0 11 9 35 20 55 11 20 20 44 20
55 0 10 5 22 10 25 5 3 10 15 10 25 0 11 9 35 20 55 11 20 20 44 20 55 0 10 5
22 10 25 6 3 10 15 10 25 0 11 9 35 20 55 11 20 20 42 20 50 0 8 9 30 20 50
11 20 20 42 20 50 0 8 9 30 20 50 11 20 20 42 20 49 0 8 14 40 30 71 17 31 30
63 30 70 0 7 14 39 30 70 17 31 30 63 30 69 0 7 23 57 50 111 28 54 50 103 50
109 0 15 364 743 382 764 8 9 31 52 52 94 21 43 42 80 47 83 4 3 22 35 39 70
17 35 35 67 40 70 6 4 19 26 30 50 11 24 24 47 30 50 6 3 19 26 30 50 11 24
24 47 30 50 6 3 19 25 30 49 10 23 26 49 35 56 8 7 15 18 15 25 0 7 7 18 15
25 9 7 25 32 35 55 10 23 26 48 35 55 8 7 15 18 15 25 0 6 9 20 20 30 11 10
20 23 20 30 0 7 9 20 20 30 11 10 20 23 20 30 0 7 9 20 20 30 11 10 20 23 20
30 0 7 9 20 20 30 11 10 20 23 20 30 0 6 14 24 30 40 17 16 30 34 30 40 0 7 9
20 20 30 11 10 20 23 20 30 0 6 14 24 30 40 17 16 30 34 30 40 0 7 9 20 20 30
11 10 20 23 20 30 0 6 14 24 30 40 17 16 30 34 30 40 0 6 18 29 40 50 22 21
40 44 40 50 0 6 14 24 30 40 17 16 30 34 30 40 0 6 18 29 40 50 22 21 40 44
40 50 0 6 23 33 50 60 28 27 50 54 50 60 0 6 23 33 50 60 28 27 50 54 50 60 0
6 36 46 80 90 44 44 80 84 80 90 0 13 592 605 605 605 6 0 42 32 80 70 38 39
74 70 80 70 6 0 33 23 60 50 27 28 54 50 60 50 6 0 33 23 60 50 27 28 54 50
60 50 6 0 24 14 40 30 16 17 34 30 40 30 6 0 24 14 40 30 16 17 34 30 40 30 6
0 24 14 40 30 16 17 34 30 40 30 6 0 24 14 40 30 16 17 34 30 40 30 7 0 20 9
30 20 10 11 23 20 30 20 7 0 20 9 30 20 10 11 23 20 30 20 7 0 20 9 30 20 10
11 23 20 30 20 7 0 20 9 30 20 10 11 24 20 30 20 7 0 18 7 25 15 7 9 33 25 56
35 24 11 46 24 49 30 3 6 26 19 50 30 24 11 47 24 50 30 3 5 23 17 43 26 20
10 45 24 54 32 22 18 589 302 604 302 7 0 38 14 69 30 31 17 63 30 71 30 7 0
29 9 49 20 20 11 44 20 55 20 10 0 22 5 25 10 3 6 15 10 25 10 11 0 35 9 55
20 20 11 44 20 55 20 10 0 22 5 25 10 3 6 17 10 30 10 13 0 27 5 30 10 3 6 17
10 30 10 13 0 27 5 30 10 3 6 21 10 40 10 19 0 37 5 40 10 3 6 17 10 30 10 13
0 27 5 30 10 3 6 17 10 30 10 13 0 27 5 30 10 3 6 21 10 40 10 19 0 37 5 40
10 3 6 21 10 40 10 19 0 37 4 40 10 3 6 21 10 40 10 19 0 37 5 40 10 3 6 26
10 50 10 24 0 47 5 50 10 3 6 21 10 40 10 19 0 37 5 40 10 3 6 30 10 60 10 30
0 57 5 60 10 3 6 30 10 60 10 30 0 57 5 60 10 3 6 35 10 70 10 35 0 67 5 70
10 3 6 48 10 100 10 52 0 97 4 100 10 4 6 68 10 160 10 92 0 156 4 160 10 8
13 352 13 360 0 4 -6 68 -10 160 -10 92 0 156 -4 160 -10 3 -6 48 -10 100 -10
52 0 97 -4 100 -10 3 -6 35 -10 70 -10 35 0 67 -4 70 -10 3 -5 30 -10 60 -10
30 0 57 -5 60 -10 3 -5 30 -10 60 -10 30 0 57 -4 60 -10 3 -5 21 -10 40 -10
19 0 37 -4 40 -10 3 -5 26 -10 50 -10 24 0 47 -4 50 -10 3 -5 21 -10 40 -10
19 0 37 -4 40 -10 3 -5 21 -10 40 -10 19 0 37 -4 40 -10 3 -6 21 -10 40 -10
19 0 37 -5 40 -10 3 -6 17 -10 30 -10 13 0 27 -4 30 -10 3 -5 17 -10 30 -10
13 0 27 -4 30 -10 3 -5 21 -10 40 -10 19 0 37 -4 40 -10 3 -5 17 -10 30 -10
13 0 27 -5 30 -10 3 -5 17 -10 30 -10 13 0 27 -5 30 -10 3 -5 15 -10 25 -10
11 0 35 -9 55 -20 20 -11 44 -20 55 -20 10 0 22 -4 25 -10 3 -5 15 -10 25 -10
11 0 35 -9 55 -20 20 -11 42 -20 49 -20 8 0 40 -13 71 -30 31 -16 62 -30 69
-30 15 0 582 -284 604 -302 9 -8 42 -27 73 -42 32 -14 62 -33 69 -41 7 -8 18
-15 25 -15 7 0 18 -7 25 -15 7 -9 32 -25 55 -35 23 -10 48 -26 55 -35 7 -8 18
-15 25 -15 6 0 20 -9 30 -20 10 -11 23 -20 30 -20 7 0 20 -9 30 -20 10 -11 23
-20 30 -20 7 0 20 -9 30 -20 10 -11 23 -20 30 -20 7 0 20 -9 30 -20 10 -11 23
-20 30 -20 6 0 24 -13 40 -30 16 -16 34 -30 40 -30 6 0 24 -14 40 -30 16 -16
34 -30 40 -30 6 0 24 -14 40 -30 16 -16 34 -30 40 -30 6 0 24 -13 40 -30 16
-16 34 -30 40 -30 6 0 33 -22 60 -50 27 -27 54 -50 60 -50 6 0 33 -22 60 -50
27 -27 54 -50 60 -50 6 0 42 -31 80 -70 38 -38 74 -70 80 -70 13 0 605 -592
605 -605 0 -6 36 -46 80 -90 44 -44 80 -84 80 -90 0 -6 23 -33 50 -60 28 -27
50 -54 50 -60 0 -6 23 -33 50 -60 28 -27 50 -54 50 -60 0 -6 18 -29 40 -50 22
-21 40 -44 40 -50 0 -6 14 -24 30 -40 17 -16 30 -34 30 -40 0 -6 18 -29 40
-50 22 -21 40 -44 40 -50 0 -6 14 -24 30 -40 17 -16 30 -34 30 -40 0 -7 9 -20
20 -30 11 -10 20 -23 20 -30 0 -6 14 -24 30 -40 17 -16 30 -34 30 -40 0 -7 9
-20 20 -30 11 -10 20 -23 20 -30 0 -6 14 -24 30 -40 17 -16 30 -34 30 -40 0
-7 9 -20 20 -30 11 -10 20 -23 20 -30 0 -7 9 -20 20 -30 11 -10 20 -23 20 -30
0 -7 9 -20 20 -30 11 -10 20 -23 20 -30 0 -7 9 -20 20 -30 11 -10 20 -24 20
-30 0 -7 7 -18 15 -25 9 -7 25 -32 35 -55 10 -23 26 -48 35 -55 8 -7 15 -18
15 -25 0 -7 7 -18 15 -25 9 -7 25 -33 35 -56 11 -24 24 -46 30 -49 6 -3 19
-26 30 -50 11 -24 24 -47 30 -50 6 -3 19 -26 30 -50 11 -24 24 -46 30 -50 5
-3 23 -35 40 -70 17 -35 35 -67 39 -70 5 -3 26 -40 47 -83 21 -42 44 -85 52
-94 18 -21 382 -749 382 -764 0 -6 23 -55 50 -109 28 -54 50 -104 50 -111 0
-6 14 -38 30 -69 17 -31 30 -63 30 -70 0 -7 14 -39 30 -70 17 -31 30 -63 30
-71 0 -7 9 -29 20 -49 11 -20 20 -42 20 -50 0 -8 9 -30 20 -50 11 -20 20 -42
20 -50 0 -8 9 -30 20 -50 11 -20 20 -44 20 -55 0 -10 5 -22 10 -25 6 -3 10
-15 10 -25 0 -11 9 -35 20 -55 11 -20 20 -44 20 -55 0 -10 5 -22 10 -25 6 -3
10 -15 10 -25 0 -11 9 -35 20 -55 11 -20 20 -44 20 -55 0 -10 5 -22 10 -25 6
-3 10 -17 10 -30 0 -13 5 -27 10 -30 6 -3 10 -17 10 -30 0 -13 5 -27 10 -30 6
-3 10 -17 10 -30 0 -13 5 -27 10 -30 6 -3 10 -17 10 -30 0 -13 5 -27 10 -30 6
-3 10 -17 10 -30 0 -13 5 -27 10 -30 6 -3 10 -17 10 -30 0 -13 5 -27 10 -30 6
-3 10 -17 10 -30 0 -13 5 -27 10 -30 6 -3 10 -17 10 -30 0 -13 5 -27 10 -30 6
-3 10 -17 10 -30 0 -13 5 -27 10 -30 6 -3 10 -17 10 -30 0 -13 5 -27 10 -30 6
-3 10 -17 10 -30 0 -13 5 -27 10 -30 6 -3 10 -21 10 -40 0 -19 5 -37 10 -40 6
-3 10 -17 10 -30 0 -13 4 -26 9 -29 5 -3 11 -20 15 -38 3 -18 8 -44 10 -58 3
-14 14 -61 26 -105 12 -44 26 -97 31 -117 5 -21 14 -57 20 -80 5 -24 13 -55
16 -71 3 -15 9 -30 14 -33 5 -3 9 -20 9 -38 0 -19 7 -39 15 -46 12 -10 29 1
102 68 84 76 125 118 358 362 97 102 231 250 291 320 16 19 47 55 69 80 44 49
130 151 161 189 10 13 33 40 49 60 17 20 46 56 65 81 19 25 40 52 47 60 7 8
35 44 63 80 28 36 56 72 63 80 7 8 23 31 37 50 13 19 27 37 30 40 4 3 26 34
51 69 24 35 65 93 92 130 70 98 307 450 307 456 0 4 18 32 39 64 22 32 48 73
59 92 11 19 42 71 71 117 28 46 51 86 51 89 0 3 9 18 20 33 11 16 33 52 49 82
15 29 38 71 51 93 86 149 327 631 421 842 10 24 28 62 38 85 37 84 94 219 112
266 5 12 14 33 19 47 6 14 15 36 20 50 6 14 14 35 19 48 5 12 19 49 31 82 26
71 39 104 51 127 5 10 9 27 9 37 0 11 4 22 8 25 4 3 14 28 22 56 8 28 18 53
22 56 4 3 8 16 8 29 0 13 5 27 10 30 6 3 10 17 10 30 0 13 5 27 10 30 6 3 10
17 10 30 0 13 5 27 10 30 6 3 10 15 10 26 0 10 4 27 9 37 5 9 19 51 31 92 12
41 26 86 30 100 4 14 13 45 20 70 6 25 16 53 21 62 5 10 9 29 9 42 0 14 4 27
9 30 5 3 11 20 14 38 3 18 10 51 17 73 6 22 16 57 21 78 5 20 13 54 19 75 5
20 14 56 20 80 5 23 15 61 21 85 5 23 14 61 20 84 5 24 14 63 19 88 16 72 29
136 40 195 6 30 15 75 20 100 12 63 30 166 40 225 5 28 14 82 20 120 12 71 20
125 39 270 132 980 125 2098 -19 3060 -21 145 -59 364 -80 475 -5 25 -14 70
-20 100 -11 59 -24 123 -40 195 -5 25 -14 64 -19 88 -9 39 -16 68 -41 167 -5
22 -14 58 -20 80 -5 22 -14 57 -19 78 -5 20 -15 55 -21 77 -7 22 -14 55 -17
73 -3 18 -9 35 -14 38 -5 3 -9 16 -9 30 0 13 -4 32 -9 42 -5 9 -15 37 -21 62
-7 25 -16 56 -20 70 -4 14 -18 59 -30 100 -12 41 -26 83 -31 92 -5 10 -9 27
-9 37 0 11 -4 23 -10 26 -5 3 -10 17 -10 30 0 13 -4 27 -10 30 -5 3 -10 17
-10 30 0 13 -4 27 -10 30 -5 3 -10 17 -10 30 0 13 -4 26 -8 29 -4 3 -14 28
-22 56 -8 28 -18 53 -22 56 -4 3 -8 14 -8 25 0 10 -4 27 -9 37 -5 9 -13 28
-18 42 -6 14 -15 36 -21 50 -5 14 -15 41 -22 60 -17 49 -34 94 -60 155 -7 17
-17 40 -21 53 -15 38 -26 66 -43 105 -42 97 -49 115 -67 155 -10 23 -28 61
-38 85 -94 211 -335 692 -421 842 -13 22 -33 58 -44 80 -12 22 -23 42 -26 45
-3 3 -11 16 -18 29 -8 13 -22 38 -32 56 -10 18 -37 63 -60 101 -24 38 -51 84
-62 103 -11 19 -37 60 -59 92 -21 32 -39 60 -39 64 0 7 -240 368 -250 375 -3
3 -26 34 -50 70 -24 36 -56 81 -70 100 -15 19 -48 64 -74 100 -74 101 -135
181 -199 260 -7 8 -28 35 -47 60 -19 24 -45 56 -56 70 -12 14 -57 68 -100 120
-43 52 -81 97 -84 100 -3 3 -34 39 -70 80 -36 41 -72 82 -80 90 -8 8 -58 62
-110 120 -101 112 -519 533 -610 614 -30 27 -80 72 -110 100 -30 28 -89 80
-130 116 -41 36 -77 67 -80 70 -3 3 -30 25 -60 50 -30 25 -57 47 -60 50 -3 3
-30 25 -60 50 -30 25 -57 47 -60 50 -3 3 -25 21 -50 40 -25 19 -52 40 -60 47
-8 7 -44 35 -80 63 -36 28 -72 56 -80 63 -8 7 -31 23 -50 37 -19 13 -37 27
-40 30 -3 4 -34 26 -69 51 -35 24 -93 65 -130 92 -123 89 -564 380 -626 413
-11 6 -57 34 -103 62 -46 29 -86 52 -89 52 -3 0 -18 9 -33 20 -16 11 -52 33
-82 49 -29 15 -71 38 -93 51 -146 84 -690 356 -850 425 -22 9 -58 25 -80 35
-22 10 -56 25 -75 33 -19 8 -53 22 -75 32 -22 9 -50 21 -62 26 -13 5 -35 14
-50 20 -16 7 -38 16 -50 20 -13 5 -33 13 -45 18 -13 4 -35 13 -50 20 -52 21
-73 29 -108 41 -42 15 -79 29 -102 41 -10 5 -27 9 -37 9 -11 0 -22 4 -25 8 -3
4 -28 14 -56 22 -28 8 -53 18 -56 22 -3 4 -16 8 -29 8 -13 0 -27 5 -30 10 -3
6 -17 10 -30 10 -13 0 -27 5 -30 10 -3 6 -17 10 -30 10 -13 0 -27 5 -30 10 -3
6 -15 10 -26 10 -10 0 -27 4 -37 9 -17 9 -107 37 -192 61 -25 6 -53 16 -62 21
-10 5 -29 9 -42 9 -14 0 -28 5 -31 10 -3 6 -19 10 -35 10 -16 0 -31 4 -34 9
-3 5 -20 11 -38 14 -18 3 -51 10 -73 17 -45 13 -101 27 -232 60 -24 5 -62 15
-85 21 -24 5 -62 14 -85 20 -24 5 -63 14 -88 19 -98 22 -173 37 -300 60 -33 7
-82 16 -110 21 -384 74 -931 136 -1390 159 -248 13 -838 24 -846 16z m878
-267 c7 -7 56 -11 137 -10 80 1 133 -2 147 -10 13 -7 59 -11 110 -10 53 1 97
-3 111 -10 12 -7 55 -11 101 -10 50 1 84 -2 93 -10 9 -8 40 -11 80 -10 41 2
71 -2 80 -10 9 -8 37 -12 70 -10 34 2 61 -3 70 -10 9 -8 35 -12 61 -10 29 2
49 -2 54 -10 5 -8 28 -12 69 -10 38 1 67 -3 77 -11 8 -7 31 -11 50 -9 19 1 41
-3 50 -10 8 -7 30 -12 48 -10 19 1 44 -3 57 -10 13 -7 36 -12 51 -11 15 1 38
-3 50 -10 12 -6 35 -11 51 -10 15 2 35 -3 43 -10 8 -7 32 -11 52 -9 23 1 42
-3 49 -12 7 -8 22 -12 37 -9 14 2 32 -2 41 -9 9 -7 29 -12 44 -11 14 2 32 -3
38 -11 7 -8 23 -12 37 -9 14 2 32 -2 41 -9 9 -7 33 -12 53 -10 24 1 42 -3 50
-13 7 -8 19 -12 27 -9 8 3 22 -1 31 -8 8 -8 27 -12 40 -11 13 2 31 -2 40 -9 8
-8 28 -12 43 -11 14 2 32 -3 39 -11 6 -8 20 -13 30 -10 9 2 23 -2 30 -10 6 -8
20 -13 30 -10 9 2 23 -2 30 -11 7 -8 19 -12 27 -9 8 3 22 -1 30 -8 9 -8 29
-12 44 -11 14 2 32 -3 39 -11 6 -8 20 -13 30 -10 9 2 23 -2 30 -10 6 -8 20
-13 30 -10 9 2 23 -2 30 -10 6 -8 20 -13 30 -10 9 2 23 -2 30 -10 6 -8 20 -13
30 -10 9 2 23 -2 30 -10 6 -8 20 -13 30 -10 9 2 23 -2 30 -10 6 -8 20 -13 30
-10 9 2 23 -2 30 -11 7 -8 19 -12 27 -9 8 3 23 -2 33 -11 10 -9 20 -13 24 -10
7 7 73 -22 82 -36 3 -5 12 -7 21 -3 8 3 23 -2 33 -11 10 -9 20 -13 24 -10 7 8
73 -22 82 -36 4 -6 11 -8 16 -4 11 6 75 -21 84 -36 4 -6 11 -8 16 -4 11 6 75
-21 84 -36 4 -6 11 -8 16 -4 11 6 75 -21 84 -35 3 -5 14 -7 25 -4 14 4 20 0
20 -11 0 -10 5 -14 11 -11 11 7 114 -39 124 -56 4 -5 11 -7 16 -3 10 6 253
-110 276 -132 7 -7 22 -10 33 -7 14 4 20 0 20 -10 0 -10 6 -13 20 -10 14 4 20
0 20 -10 0 -10 6 -13 20 -10 14 4 20 0 20 -10 0 -10 6 -13 20 -10 14 4 20 0
20 -10 0 -10 6 -13 20 -10 14 4 20 0 20 -10 0 -10 6 -13 20 -10 14 4 20 0 20
-11 0 -10 6 -13 15 -10 9 4 23 -3 34 -15 10 -11 22 -21 27 -21 19 0 196 -94
201 -106 3 -8 11 -14 17 -14 21 0 117 -52 123 -66 3 -8 11 -14 18 -14 20 0 76
-31 82 -46 3 -8 14 -14 24 -14 10 0 19 -4 19 -10 0 -5 6 -10 13 -10 22 0 78
-31 84 -46 3 -8 11 -14 19 -14 19 0 55 -20 75 -42 9 -10 24 -18 33 -18 9 0 21
-9 28 -20 7 -11 19 -20 26 -20 15 0 49 -19 76 -42 11 -10 26 -18 33 -18 7 0
13 -4 13 -9 0 -5 16 -16 36 -26 19 -9 38 -23 41 -31 3 -8 12 -14 19 -14 8 0
24 -9 36 -20 12 -11 28 -20 35 -20 7 0 13 -4 13 -8 0 -5 12 -15 28 -23 15 -7
39 -26 55 -41 15 -16 34 -28 42 -28 8 0 20 -9 27 -20 7 -11 19 -20 27 -20 8 0
27 -13 43 -30 15 -16 34 -30 42 -30 8 0 26 -13 39 -30 14 -16 32 -30 40 -30 9
0 27 -13 40 -30 14 -16 32 -30 40 -30 9 0 27 -13 40 -30 14 -16 31 -30 38 -30
6 0 25 -13 41 -30 15 -16 33 -30 40 -30 6 0 29 -18 50 -40 22 -22 45 -40 51
-40 6 0 32 -22 59 -50 26 -27 53 -50 60 -50 6 0 33 -22 60 -50 26 -27 53 -50
59 -50 7 0 43 -31 80 -70 38 -38 75 -70 82 -70 7 0 56 -45 110 -100 53 -55
102 -100 108 -100 14 0 519 -505 519 -518 0 -5 45 -55 100 -110 55 -55 100
-105 100 -111 0 -5 32 -41 70 -80 39 -38 70 -74 70 -79 0 -5 22 -32 50 -60 28
-28 50 -55 50 -60 0 -6 18 -28 40 -50 22 -21 40 -44 40 -50 0 -6 18 -29 40
-51 22 -22 40 -45 40 -51 0 -6 14 -23 30 -37 17 -13 30 -31 30 -38 0 -7 18
-31 40 -53 22 -21 40 -43 40 -49 0 -5 9 -18 20 -28 11 -10 20 -24 20 -32 0 -8
14 -26 30 -40 17 -13 30 -31 30 -39 0 -8 14 -27 30 -42 17 -16 30 -35 30 -43
0 -8 9 -20 20 -27 11 -7 20 -19 20 -27 0 -8 12 -27 28 -42 15 -16 34 -40 41
-55 8 -16 18 -28 23 -28 4 0 8 -7 8 -16 0 -9 8 -24 18 -33 9 -9 23 -28 31 -43
8 -16 18 -28 23 -28 4 0 8 -9 8 -19 0 -10 6 -21 14 -24 8 -3 22 -22 31 -41 10
-20 21 -36 26 -36 5 0 9 -6 9 -13 0 -7 8 -22 18 -33 22 -26 42 -61 42 -75 0
-6 8 -19 18 -28 21 -20 42 -56 42 -73 0 -7 9 -19 20 -26 11 -7 20 -18 20 -25
0 -7 8 -22 18 -33 20 -22 62 -101 62 -116 0 -6 8 -18 18 -27 10 -9 30 -42 46
-74 15 -31 33 -63 39 -70 14 -14 97 -178 97 -191 0 -5 10 -17 21 -27 12 -11
19 -25 15 -34 -3 -9 0 -15 10 -15 11 0 15 -6 11 -20 -3 -11 0 -20 6 -20 16 -1
161 -296 152 -309 -3 -6 1 -11 11 -11 11 0 15 -6 11 -20 -3 -11 -1 -22 3 -25
15 -9 102 -194 96 -204 -3 -5 0 -15 6 -23 22 -23 61 -106 54 -116 -3 -6 0 -16
6 -24 22 -23 61 -106 54 -116 -3 -6 -2 -13 4 -17 16 -10 42 -73 35 -84 -3 -6
1 -11 11 -11 11 0 15 -6 11 -20 -3 -10 2 -25 10 -31 8 -7 12 -21 10 -30 -3
-10 2 -24 9 -30 8 -7 13 -21 12 -33 -2 -14 2 -20 11 -18 9 2 12 -4 8 -17 -3
-11 2 -26 10 -32 8 -7 12 -21 10 -31 -3 -10 -1 -20 4 -23 14 -9 42 -75 35 -82
-3 -4 1 -14 10 -24 9 -10 14 -25 11 -33 -3 -8 1 -20 9 -27 9 -7 13 -21 11 -30
-3 -10 2 -24 10 -30 8 -7 12 -21 10 -30 -3 -10 2 -24 10 -30 8 -7 12 -21 10
-30 -3 -10 2 -24 10 -30 8 -7 12 -21 10 -30 -3 -10 2 -24 10 -30 8 -7 12 -21
10 -30 -3 -10 2 -24 10 -30 8 -7 12 -21 10 -30 -3 -10 2 -24 10 -30 8 -7 13
-25 11 -39 -1 -15 3 -35 11 -44 7 -8 11 -22 8 -30 -3 -8 1 -20 9 -27 8 -7 14
-25 12 -39 -1 -15 3 -35 11 -44 7 -8 11 -22 8 -30 -3 -8 1 -20 9 -27 8 -7 14
-25 12 -39 -1 -15 3 -35 11 -43 7 -9 11 -27 9 -40 -1 -13 3 -31 11 -40 7 -9
11 -22 8 -29 -2 -7 2 -26 10 -41 8 -16 12 -35 9 -42 -3 -8 2 -19 10 -26 8 -6
14 -26 12 -43 -1 -17 4 -41 11 -54 7 -13 11 -33 9 -46 -1 -13 3 -31 11 -40 7
-9 11 -27 9 -41 -3 -15 1 -30 9 -37 9 -7 13 -26 12 -49 -2 -20 3 -44 10 -53 7
-8 11 -30 10 -49 -2 -19 2 -42 9 -50 7 -8 12 -34 10 -57 -1 -25 3 -44 11 -49
8 -5 12 -23 10 -44 -2 -19 3 -42 10 -50 7 -9 11 -35 10 -61 -2 -25 3 -51 10
-60 7 -8 11 -34 10 -60 -2 -25 3 -51 10 -59 7 -9 11 -36 10 -64 -1 -26 3 -58
10 -71 7 -13 11 -47 10 -77 -2 -32 3 -60 10 -69 8 -9 12 -39 10 -80 -1 -40 2
-71 10 -80 8 -9 11 -43 10 -93 -1 -46 3 -89 10 -101 7 -14 11 -61 10 -121 -1
-58 3 -107 10 -120 8 -13 12 -72 11 -159 -1 -75 4 -153 9 -172 15 -47 15 -863
0 -910 -5 -19 -10 -97 -9 -172 1 -87 -3 -146 -11 -159 -7 -13 -11 -62 -10
-120 1 -61 -3 -107 -10 -121 -7 -12 -11 -52 -10 -90 1 -37 -3 -77 -10 -90 -7
-12 -11 -53 -10 -91 1 -43 -3 -74 -10 -83 -8 -9 -12 -38 -10 -70 2 -34 -3 -61
-10 -70 -7 -9 -12 -35 -10 -59 1 -24 -3 -54 -10 -67 -7 -13 -11 -45 -10 -71 1
-28 -3 -55 -10 -64 -7 -8 -12 -34 -10 -59 1 -26 -3 -52 -10 -61 -7 -8 -12 -31
-10 -50 1 -19 -3 -41 -10 -50 -7 -8 -12 -31 -10 -50 2 -21 -2 -39 -10 -44 -8
-5 -12 -24 -11 -49 2 -23 -3 -49 -10 -57 -6 -8 -11 -32 -9 -52 1 -23 -3 -42
-12 -49 -8 -7 -12 -22 -9 -37 2 -14 -2 -32 -9 -41 -8 -9 -12 -27 -11 -40 2
-13 -3 -31 -11 -39 -9 -8 -13 -24 -10 -35 3 -11 -1 -35 -8 -52 -7 -18 -12 -44
-11 -59 2 -14 -4 -31 -12 -38 -8 -7 -12 -19 -9 -26 3 -8 -2 -21 -10 -29 -8 -9
-12 -25 -10 -40 3 -15 -1 -33 -8 -42 -7 -9 -12 -29 -11 -44 2 -14 -4 -32 -12
-39 -8 -7 -13 -18 -10 -26 3 -7 -1 -26 -9 -42 -7 -15 -12 -35 -10 -44 2 -9 -3
-21 -11 -28 -8 -7 -12 -19 -9 -27 3 -8 -1 -22 -8 -30 -8 -9 -12 -29 -11 -44 2
-14 -3 -32 -11 -39 -8 -6 -13 -20 -10 -30 2 -9 -2 -23 -10 -30 -8 -6 -13 -20
-10 -30 2 -9 -2 -23 -10 -30 -8 -6 -13 -20 -10 -30 2 -9 -2 -23 -10 -30 -8 -6
-13 -20 -10 -30 2 -9 -2 -23 -10 -30 -8 -6 -13 -20 -10 -30 2 -9 -2 -23 -11
-30 -8 -7 -12 -19 -9 -27 3 -8 -2 -23 -11 -33 -9 -10 -13 -20 -10 -24 7 -7
-21 -73 -35 -82 -5 -3 -7 -13 -4 -23 2 -10 -2 -24 -10 -31 -8 -6 -13 -20 -10
-30 2 -9 -2 -23 -10 -30 -8 -6 -13 -21 -10 -32 4 -13 1 -19 -8 -17 -9 2 -13
-4 -11 -18 1 -12 -4 -27 -13 -34 -8 -7 -12 -16 -9 -22 7 -10 -21 -74 -36 -83
-6 -4 -8 -11 -4 -16 6 -11 -21 -75 -36 -84 -6 -4 -8 -11 -4 -16 6 -11 -21 -75
-35 -84 -5 -3 -7 -14 -4 -25 4 -14 0 -20 -11 -20 -10 0 -14 -5 -11 -11 7 -11
-39 -114 -56 -124 -5 -4 -7 -11 -3 -16 6 -10 -61 -155 -76 -164 -4 -3 -6 -14
-3 -25 4 -14 0 -20 -10 -20 -10 0 -13 -6 -10 -20 4 -14 0 -20 -11 -20 -10 0
-14 -5 -11 -11 9 -14 -97 -228 -113 -229 -7 0 -10 -5 -7 -10 9 -14 -37 -110
-52 -110 -7 0 -10 -7 -7 -15 4 -9 -3 -23 -15 -34 -11 -10 -21 -22 -21 -27 0
-17 -85 -179 -102 -195 -10 -9 -18 -21 -18 -27 0 -17 -44 -96 -62 -113 -10 -9
-18 -21 -18 -26 0 -19 -32 -74 -46 -80 -8 -3 -14 -11 -14 -19 0 -16 -18 -51
-37 -72 -7 -7 -20 -30 -30 -50 -9 -20 -25 -44 -35 -53 -10 -9 -18 -24 -18 -33
0 -9 -9 -21 -20 -28 -11 -7 -20 -21 -20 -30 0 -10 -9 -23 -20 -30 -11 -7 -20
-21 -20 -30 0 -10 -9 -23 -20 -30 -11 -7 -20 -19 -20 -26 0 -19 -22 -54 -52
-85 -16 -15 -28 -32 -28 -38 0 -5 -9 -19 -20 -31 -11 -12 -20 -28 -20 -35 0
-7 -4 -13 -8 -13 -5 0 -15 -12 -23 -27 -7 -16 -26 -40 -41 -56 -16 -15 -28
-32 -28 -39 0 -6 -14 -24 -30 -40 -16 -15 -30 -33 -30 -39 0 -6 -18 -28 -40
-50 -22 -22 -40 -44 -40 -50 0 -6 -22 -33 -50 -61 -27 -28 -50 -55 -50 -61 0
-13 -305 -317 -318 -317 -5 0 -23 -14 -40 -30 -18 -17 -36 -30 -40 -30 -5 0
-18 -9 -31 -21 -12 -11 -29 -18 -37 -15 -8 3 -14 -1 -14 -10 0 -11 -6 -15 -20
-11 -14 3 -20 0 -20 -10 0 -10 -6 -14 -20 -10 -13 3 -20 0 -20 -9 0 -8 -9 -14
-20 -14 -11 0 -20 -4 -20 -10 0 -6 -48 -10 -125 -10 -77 0 -125 4 -125 10 0 6
-9 10 -20 10 -11 0 -20 5 -20 10 0 6 -7 10 -15 10 -16 0 -165 143 -165 158 0
5 -14 24 -31 41 -17 18 -28 39 -25 47 3 8 -1 14 -9 14 -8 0 -15 9 -15 20 0 11
-4 20 -10 20 -5 0 -10 7 -10 16 0 9 -10 25 -21 35 -12 11 -19 25 -15 34 3 8 0
15 -7 15 -15 0 -61 96 -52 110 3 5 -1 10 -11 10 -11 0 -15 6 -11 20 3 14 0 20
-10 20 -10 0 -14 6 -10 20 3 11 0 26 -6 33 -22 23 -59 105 -53 116 4 6 0 11
-10 11 -11 0 -15 6 -11 20 3 11 1 22 -3 25 -15 9 -62 114 -56 124 3 5 0 15 -7
23 -22 23 -79 146 -73 157 4 5 2 12 -3 15 -16 10 -83 154 -77 165 4 5 2 12 -3
16 -15 9 -62 110 -59 126 2 8 -3 13 -11 11 -9 -2 -12 4 -8 18 3 14 0 20 -10
20 -10 0 -14 6 -10 20 3 14 0 20 -10 20 -10 0 -14 6 -10 20 3 11 2 22 -3 25
-16 10 -122 234 -115 244 3 6 0 11 -7 11 -16 0 -42 55 -33 70 3 5 0 10 -7 10
-12 1 -238 443 -238 466 0 7 -6 14 -14 17 -8 3 -28 35 -46 71 -17 36 -36 71
-43 78 -7 7 -25 39 -41 71 -15 31 -33 63 -39 70 -16 17 -57 96 -57 111 0 6 -9
17 -20 24 -11 7 -20 18 -20 25 0 7 -8 22 -18 33 -9 10 -28 40 -41 67 -13 26
-28 47 -33 47 -4 0 -8 9 -8 20 0 11 -4 20 -10 20 -5 0 -10 8 -10 18 0 9 -9 23
-20 30 -11 7 -20 21 -20 31 0 10 -6 21 -14 24 -8 3 -22 22 -31 41 -10 20 -21
36 -26 36 -5 0 -9 6 -9 13 0 7 -8 22 -17 33 -10 10 -24 31 -32 46 -8 16 -18
28 -23 28 -4 0 -8 8 -8 18 0 9 -9 23 -20 30 -11 7 -20 20 -20 30 0 9 -9 23
-20 30 -11 7 -20 19 -20 27 0 8 -12 27 -28 42 -15 16 -34 40 -41 55 -8 16 -18
28 -23 28 -4 0 -8 7 -8 15 0 8 -13 28 -30 43 -16 16 -30 34 -30 40 0 7 -13 25
-30 40 -16 16 -30 34 -30 40 0 7 -13 25 -30 40 -16 16 -30 34 -30 40 0 7 -13
25 -30 40 -16 16 -30 34 -30 40 0 6 -18 28 -40 50 -22 21 -40 44 -40 49 0 6
-22 33 -50 61 -27 28 -50 55 -50 60 0 5 -22 32 -50 60 -27 28 -50 55 -50 60 0
5 -27 36 -60 70 -33 33 -60 65 -60 70 0 5 -63 73 -140 151 -77 77 -140 145
-140 151 0 15 -25 40 -40 40 -15 0 -40 25 -40 40 0 13 -86 100 -99 100 -6 0
-61 49 -123 110 -62 60 -117 110 -121 110 -5 0 -45 36 -89 80 -45 44 -87 80
-92 80 -6 0 -33 23 -59 50 -27 28 -54 50 -60 50 -5 0 -28 18 -49 40 -22 22
-44 40 -50 40 -6 0 -24 14 -40 30 -15 17 -33 30 -40 30 -6 0 -24 14 -40 30
-15 17 -33 30 -40 30 -6 0 -24 14 -40 30 -15 17 -33 30 -40 30 -6 0 -24 14
-40 30 -15 17 -35 30 -43 30 -8 0 -20 9 -27 20 -7 11 -21 20 -30 20 -10 0 -23
9 -30 20 -7 11 -21 20 -30 20 -10 0 -23 9 -30 20 -7 11 -21 20 -30 20 -10 0
-23 9 -30 20 -7 11 -21 20 -30 20 -10 0 -23 9 -30 20 -7 11 -19 20 -26 20 -15
0 -49 19 -76 43 -11 9 -26 17 -33 17 -7 0 -18 9 -25 20 -7 11 -18 20 -23 20
-17 0 -65 24 -65 33 0 4 -9 7 -20 7 -11 0 -20 4 -20 9 0 5 -40 28 -90 52 -49
24 -90 49 -90 56 0 7 -7 10 -15 7 -9 -4 -23 3 -34 15 -10 11 -23 21 -28 21
-15 0 -63 24 -63 33 0 4 -6 7 -14 7 -16 0 -140 62 -144 73 -2 4 -10 7 -19 7
-8 0 -21 6 -29 14 -7 8 -23 12 -34 9 -14 -4 -20 0 -20 11 0 10 -5 14 -11 11
-10 -7 -114 39 -124 55 -3 4 -14 6 -25 3 -14 -4 -20 0 -20 11 0 10 -5 14 -11
11 -10 -7 -74 19 -84 34 -3 5 -14 7 -25 4 -14 -4 -20 0 -20 11 0 10 -5 14 -11
11 -10 -7 -74 19 -84 34 -3 5 -13 7 -23 4 -10 -2 -24 2 -31 10 -6 8 -21 13
-31 10 -14 -4 -20 0 -20 10 0 10 -6 13 -18 10 -10 -2 -24 2 -31 10 -6 8 -20
13 -30 10 -9 -2 -23 2 -30 10 -6 8 -21 13 -31 10 -14 -4 -20 0 -20 10 0 10 -6
13 -18 10 -10 -2 -24 2 -31 10 -6 8 -20 13 -30 10 -9 -2 -23 2 -30 10 -6 8
-21 13 -31 10 -13 -4 -20 0 -20 9 0 10 -8 13 -30 10 -22 -3 -30 0 -30 11 0 10
-6 13 -18 10 -10 -2 -24 2 -31 10 -6 8 -20 13 -30 10 -9 -2 -23 2 -30 10 -6 8
-21 13 -31 10 -13 -4 -20 0 -20 9 0 11 -7 14 -25 11 -14 -3 -31 1 -40 10 -9 9
-22 14 -30 11 -8 -3 -21 1 -30 9 -8 8 -24 13 -35 10 -13 -4 -20 0 -20 9 0 10
-8 13 -30 10 -21 -3 -30 0 -30 10 0 10 -9 13 -30 10 -21 -3 -30 0 -30 10 0 10
-9 13 -30 10 -21 -3 -30 0 -30 10 0 10 -11 13 -40 10 -25 -3 -40 0 -40 7 0 6
-9 11 -20 11 -11 0 -20 5 -20 10 0 6 -13 10 -30 10 -16 0 -30 5 -30 10 0 6
-18 10 -40 10 -22 0 -40 5 -40 10 0 6 -9 10 -20 10 -11 0 -20 5 -20 10 0 6
-13 10 -30 10 -16 0 -30 5 -30 10 0 6 -13 10 -30 10 -16 0 -30 5 -30 10 0 6
-13 10 -30 10 -16 0 -30 5 -30 10 0 6 -9 10 -20 10 -11 0 -20 5 -20 10 0 6
-13 10 -30 10 -16 0 -30 5 -30 10 0 6 -7 10 -16 10 -9 0 -29 14 -44 30 -15 17
-35 30 -44 30 -9 0 -16 7 -16 15 0 8 8 15 18 15 10 0 24 9 32 20 8 11 21 20
30 20 9 0 22 9 30 20 8 12 26 20 42 20 15 0 28 5 28 10 0 6 9 10 20 10 11 0
20 5 20 10 0 6 9 10 20 10 11 0 20 5 20 10 0 6 14 10 30 10 17 0 30 5 30 10 0
6 14 10 30 10 17 0 30 5 30 10 0 6 9 10 20 10 11 0 20 5 20 10 0 6 14 10 30
10 17 0 30 5 30 10 0 6 14 10 30 10 17 0 30 5 30 10 0 6 9 10 20 10 11 0 20 5
20 10 0 6 9 10 20 10 11 0 20 5 20 10 0 6 14 10 30 10 17 0 30 5 30 11 0 7 12
10 30 7 22 -3 30 0 30 10 0 9 7 13 20 9 13 -3 20 0 20 9 0 8 9 14 20 14 11 0
20 5 20 11 0 7 12 10 30 7 22 -3 30 0 30 10 0 9 7 13 20 9 10 -3 25 2 31 10 7
8 21 12 31 10 12 -3 18 0 18 10 0 10 6 14 20 10 14 -3 20 0 20 10 0 10 6 14
20 10 11 -3 22 -1 25 4 10 15 74 41 84 34 6 -3 11 1 11 11 0 11 6 15 20 11 14
-3 20 0 20 10 0 10 6 14 20 10 10 -3 24 1 31 9 6 8 20 14 30 14 11 0 19 5 19
10 0 6 9 10 20 10 11 0 20 5 20 10 0 6 9 10 19 10 11 0 21 3 23 8 4 10 87 52
104 52 8 0 14 5 14 10 0 6 7 10 16 10 9 0 25 10 35 21 11 12 25 19 34 15 8 -3
15 0 15 7 0 12 44 37 67 37 7 0 13 5 13 10 0 6 9 10 19 10 10 0 21 6 24 14 6
14 62 46 81 46 7 0 18 9 26 20 8 11 19 20 25 20 6 0 20 8 31 18 10 9 31 23 47
31 15 8 27 18 27 23 0 4 6 8 13 8 7 0 22 8 33 18 10 9 31 23 47 31 15 8 27 18
27 23 0 4 7 8 15 8 8 0 28 14 43 30 16 16 33 30 38 30 5 0 23 14 41 30 18 17
36 30 42 30 5 0 27 18 49 40 21 22 44 40 49 40 6 0 38 27 71 60 34 33 65 60
71 60 12 0 301 290 301 303 0 5 32 41 70 79 39 38 70 74 70 80 0 6 18 28 40
49 22 21 40 45 40 54 0 8 9 20 20 27 11 7 20 19 20 27 0 8 14 27 30 43 17 15
30 35 30 43 0 8 9 20 20 27 11 7 20 21 20 30 0 10 9 23 20 30 11 7 20 21 20
30 0 10 9 23 20 30 11 7 20 18 20 24 0 15 41 94 56 111 7 7 29 47 50 90 21 43
44 84 51 91 6 6 15 22 18 35 10 34 28 70 48 91 9 11 17 27 17 36 0 20 27 77
41 85 5 4 7 11 3 16 -6 11 21 75 36 84 6 4 8 11 4 16 -6 11 21 75 35 84 5 3 7
13 4 23 -2 10 2 24 10 31 8 6 13 20 10 30 -2 9 2 23 10 30 8 6 13 20 10 30 -2
9 2 23 10 30 8 6 13 20 10 30 -2 9 2 23 11 30 8 7 13 18 10 26 -3 7 1 26 9 42
8 15 12 34 10 41 -3 7 1 20 8 29 8 8 12 28 11 43 -2 14 3 32 11 38 9 7 12 23
9 38 -3 16 1 29 9 34 8 6 12 24 11 50 -2 23 3 49 10 57 7 8 11 30 9 48 -1 19
3 44 10 57 7 13 12 40 10 60 -1 21 4 48 10 60 7 12 11 49 10 81 -1 32 3 65 9
72 6 8 13 56 14 107 2 51 5 118 8 148 7 71 7 419 0 490 -3 30 -6 99 -8 152 -1
53 -8 106 -14 118 -6 11 -10 48 -9 81 2 39 -2 63 -10 68 -7 5 -11 25 -10 47 1
21 -3 49 -10 62 -6 12 -11 40 -9 63 1 24 -3 44 -11 48 -7 5 -11 25 -10 50 2
27 -2 45 -10 51 -8 5 -12 18 -9 34 3 15 0 31 -9 38 -8 6 -13 24 -11 38 1 15
-3 35 -11 44 -7 8 -11 22 -8 30 3 8 -1 20 -9 27 -8 7 -14 25 -12 39 1 15 -3
35 -11 44 -7 8 -11 22 -8 30 3 8 -1 20 -9 27 -9 7 -13 21 -11 30 3 10 -2 24
-10 30 -8 7 -12 21 -10 30 3 10 -2 24 -10 30 -8 7 -12 21 -10 31 3 10 1 20 -4
23 -14 9 -41 73 -35 84 4 5 2 12 -4 16 -15 9 -42 73 -36 84 4 5 2 12 -3 15
-16 10 -83 154 -77 165 3 5 1 16 -6 23 -18 20 -38 56 -38 69 0 6 -8 19 -18 28
-19 18 -82 137 -82 156 0 7 -6 15 -14 18 -14 6 -46 61 -46 81 0 6 -9 17 -20
24 -11 7 -20 20 -20 30 0 9 -9 23 -20 30 -11 7 -20 20 -20 30 0 9 -9 23 -20
30 -11 7 -20 19 -20 27 0 8 -13 28 -30 43 -16 16 -30 34 -30 40 0 7 -13 25
-30 40 -16 16 -30 34 -30 40 0 6 -18 29 -40 51 -22 22 -40 44 -40 49 0 5 -31
41 -70 80 -38 39 -70 75 -70 80 0 13 -270 282 -283 282 -6 0 -37 27 -69 60
-31 33 -63 60 -69 60 -7 0 -30 18 -51 40 -22 22 -46 40 -53 40 -7 0 -25 14
-38 30 -14 17 -33 30 -41 30 -9 0 -21 9 -28 20 -7 11 -21 20 -30 20 -10 0 -18
4 -18 8 0 5 -12 15 -27 23 -16 8 -37 22 -47 32 -11 9 -26 17 -33 17 -7 0 -13
4 -13 8 0 5 -12 15 -27 23 -16 8 -35 22 -44 31 -9 10 -21 18 -26 18 -19 0 -74
32 -80 46 -3 8 -10 14 -17 14 -13 0 -379 182 -399 199 -8 6 -17 8 -20 5 -7 -7
-73 22 -82 35 -3 5 -13 7 -23 4 -10 -2 -24 2 -31 11 -7 8 -19 12 -27 9 -8 -3
-23 2 -33 11 -10 9 -20 13 -24 10 -7 -7 -73 22 -82 36 -3 5 -12 7 -20 3 -9 -3
-23 1 -31 8 -9 8 -29 12 -44 11 -14 -2 -32 4 -39 12 -7 8 -19 12 -27 9 -8 -3
-22 1 -31 8 -8 8 -27 12 -40 11 -13 -2 -31 2 -40 9 -8 8 -28 12 -43 11 -14 -2
-32 3 -38 11 -7 8 -23 12 -37 9 -14 -2 -32 2 -41 9 -9 7 -32 12 -51 10 -19 -1
-41 3 -50 10 -8 7 -31 12 -50 10 -19 -1 -41 3 -49 10 -9 7 -35 12 -59 10 -24
-1 -54 3 -66 10 -13 7 -53 11 -92 10 -40 -1 -74 3 -83 10 -9 7 -56 11 -140 10
-80 -1 -131 2 -139 9 -18 15 -302 15 -320 0 -8 -7 -61 -10 -143 -9 -82 1 -137
-3 -151 -11 -12 -6 -51 -10 -86 -9 -40 1 -70 -2 -79 -10 -8 -7 -35 -11 -60
-10 -25 2 -51 -3 -59 -10 -9 -7 -37 -11 -67 -10 -34 2 -54 -2 -60 -11 -5 -7
-18 -11 -34 -8 -15 3 -31 0 -38 -9 -6 -8 -24 -13 -38 -11 -15 1 -35 -4 -44
-11 -9 -7 -27 -11 -41 -9 -14 3 -30 -1 -37 -9 -6 -8 -24 -13 -38 -11 -15 1
-35 -3 -43 -11 -9 -7 -22 -11 -29 -8 -7 2 -26 -2 -41 -10 -16 -8 -35 -12 -42
-9 -8 3 -19 -2 -26 -10 -7 -9 -21 -13 -30 -11 -10 3 -24 -2 -30 -10 -7 -8 -21
-12 -30 -10 -10 3 -24 -2 -30 -10 -7 -8 -21 -12 -31 -10 -10 3 -20 1 -23 -4
-9 -14 -75 -42 -82 -35 -4 3 -14 -1 -24 -10 -10 -9 -25 -14 -34 -11 -9 4 -15
1 -15 -9 0 -11 -6 -15 -20 -11 -11 3 -22 1 -25 -3 -10 -16 -114 -62 -124 -55
-6 3 -11 -1 -11 -11 0 -11 -6 -15 -20 -11 -14 3 -20 0 -20 -10 0 -10 -6 -14
-20 -10 -12 3 -20 0 -20 -6 0 -15 -56 -41 -70 -32 -5 3 -10 0 -10 -7 0 -12
-123 -78 -147 -78 -6 0 -13 -6 -16 -14 -6 -14 -61 -46 -81 -46 -6 0 -17 -9
-24 -20 -7 -11 -20 -20 -30 -20 -9 0 -23 -9 -30 -20 -7 -11 -20 -20 -30 -20
-9 0 -23 -9 -30 -20 -7 -11 -19 -20 -27 -20 -8 0 -28 -13 -43 -30 -16 -16 -34
-30 -39 -30 -5 0 -18 -9 -28 -20 -10 -11 -24 -20 -31 -20 -7 0 -30 -18 -52
-40 -21 -22 -44 -40 -50 -40 -7 0 -34 -22 -60 -50 -27 -27 -53 -50 -58 -50
-13 0 -384 -370 -384 -382 0 -5 -22 -32 -50 -60 -27 -28 -50 -55 -50 -60 0 -5
-18 -27 -40 -49 -22 -22 -40 -45 -40 -51 0 -6 -13 -24 -30 -40 -16 -15 -30
-35 -30 -43 0 -8 -9 -20 -20 -27 -11 -7 -20 -19 -20 -26 0 -7 -9 -22 -20 -34
-11 -12 -20 -28 -20 -35 0 -7 -4 -13 -8 -13 -5 0 -15 -12 -23 -27 -8 -16 -22
-37 -31 -47 -10 -11 -18 -26 -18 -33 0 -7 -4 -13 -10 -13 -5 0 -10 -9 -10 -20
0 -11 -4 -20 -9 -20 -4 0 -23 -30 -42 -67 -18 -38 -42 -75 -51 -84 -10 -9 -18
-20 -18 -25 0 -13 -70 -153 -80 -159 -4 -3 -6 -14 -3 -25 4 -14 0 -20 -11 -20
-10 0 -14 -5 -11 -11 7 -11 -39 -114 -56 -124 -5 -4 -7 -11 -3 -16 6 -11 -21
-75 -36 -84 -5 -3 -7 -12 -3 -21 3 -8 -2 -23 -11 -33 -9 -10 -13 -20 -10 -24
4 -3 -4 -28 -16 -54 -13 -26 -23 -58 -22 -69 1 -12 -5 -27 -12 -33 -8 -7 -12
-20 -9 -30 2 -9 -2 -23 -11 -30 -8 -7 -12 -19 -9 -27 3 -8 -1 -22 -8 -30 -8
-9 -12 -29 -11 -44 2 -14 -3 -32 -11 -38 -8 -7 -12 -23 -9 -37 2 -14 -2 -32
-9 -41 -7 -9 -12 -29 -11 -44 2 -14 -3 -32 -11 -39 -8 -6 -13 -21 -10 -31 3
-11 -1 -35 -8 -52 -7 -18 -12 -47 -10 -66 1 -18 -3 -40 -10 -48 -7 -9 -12 -35
-10 -60 1 -26 -3 -52 -10 -60 -8 -9 -12 -37 -10 -71 2 -34 -2 -59 -9 -63 -7
-4 -12 -45 -14 -106 -2 -54 -5 -124 -8 -154 -7 -73 -7 -483 0 -540 3 -25 6
-90 8 -144 2 -61 7 -102 14 -106 7 -4 11 -29 9 -63 -2 -34 2 -62 10 -71 7 -8
11 -34 10 -60 -2 -25 3 -51 10 -60 7 -8 11 -30 10 -48 -2 -19 3 -48 10 -66 7
-17 11 -41 8 -52 -3 -10 2 -25 10 -31 8 -7 13 -25 11 -39 -1 -15 4 -35 11 -44
7 -9 11 -27 9 -41 -3 -14 1 -30 9 -36 7 -7 12 -27 11 -46 -1 -20 3 -38 11 -43
8 -4 11 -15 8 -23 -3 -9 1 -21 9 -28 9 -7 13 -21 11 -30 -3 -10 1 -23 9 -30 7
-6 13 -21 12 -33 -1 -11 9 -43 22 -69 12 -26 20 -51 16 -54 -3 -4 1 -14 10
-24 9 -10 14 -25 11 -33 -4 -9 -2 -18 3 -21 15 -9 42 -73 36 -84 -4 -5 -2 -12
3 -16 16 -9 63 -113 57 -123 -3 -6 1 -15 9 -22 8 -7 15 -21 15 -30 0 -10 3
-20 8 -22 9 -4 72 -127 72 -141 0 -5 8 -17 18 -26 19 -18 82 -137 82 -156 0
-7 6 -15 14 -18 8 -3 22 -22 31 -41 10 -20 21 -36 26 -36 5 0 9 -9 9 -20 0
-11 5 -20 10 -20 6 0 10 -7 10 -15 0 -8 14 -28 30 -43 17 -16 30 -35 30 -43 0
-8 9 -20 20 -27 11 -7 20 -19 20 -27 0 -8 14 -28 30 -43 16 -16 30 -34 30 -40
0 -6 18 -29 40 -51 22 -22 40 -44 40 -49 0 -6 22 -32 50 -59 27 -26 50 -53 50
-59 0 -13 370 -384 383 -384 5 0 31 -22 59 -50 28 -27 55 -50 60 -50 5 0 27
-18 49 -40 22 -22 45 -40 50 -40 6 0 24 -13 39 -30 15 -16 34 -30 40 -30 7 0
26 -14 42 -30 15 -16 35 -30 43 -30 8 0 20 -9 27 -20 7 -11 21 -20 30 -20 10
0 18 -4 18 -9 0 -5 16 -16 36 -26 19 -9 38 -23 41 -31 3 -8 14 -14 24 -14 10
0 24 -9 31 -20 7 -11 19 -20 26 -20 17 0 53 -21 73 -42 9 -10 20 -18 25 -18
20 0 104 -46 104 -57 0 -7 7 -10 15 -7 9 4 23 -3 34 -15 10 -11 26 -21 35 -21
9 0 16 -4 16 -10 0 -5 6 -10 12 -10 16 0 316 -149 323 -160 3 -5 14 -6 25 -3
14 4 20 0 20 -10 0 -10 6 -13 20 -10 14 4 20 0 20 -10 0 -10 6 -13 20 -10 13
4 20 0 20 -9 0 -10 8 -13 30 -10 22 3 30 0 30 -11 0 -10 6 -13 20 -10 14 4 20
0 20 -10 0 -10 6 -13 20 -10 13 4 20 0 20 -9 0 -10 8 -13 30 -10 22 3 30 0 30
-11 0 -10 6 -13 20 -10 13 4 20 0 20 -9 0 -10 8 -13 30 -10 18 3 30 0 30 -7 0
-6 9 -11 20 -11 11 0 20 -6 20 -13 0 -9 10 -12 30 -9 18 3 30 0 30 -7 0 -6 9
-11 20 -11 11 0 20 -4 20 -10 0 -5 14 -10 30 -10 17 0 30 -4 30 -10 0 -5 9
-10 20 -10 11 0 20 -4 20 -10 0 -5 14 -10 30 -10 17 0 30 -4 30 -10 0 -5 9
-10 20 -10 11 0 20 -4 20 -10 0 -5 14 -10 30 -10 17 0 30 -4 30 -10 0 -5 9
-10 20 -10 11 0 20 -4 20 -10 0 -5 18 -10 40 -10 22 0 40 -4 40 -10 0 -5 9
-10 20 -10 11 0 20 -4 20 -10 0 -5 9 -10 20 -10 11 0 20 -4 20 -10 0 -5 13
-10 28 -10 16 0 34 -8 42 -20 8 -11 20 -20 28 -20 7 0 28 -16 48 -35 27 -28
31 -35 17 -35 -10 0 -25 -9 -33 -20 -8 -11 -21 -20 -30 -20 -9 0 -22 -9 -30
-20 -8 -12 -26 -20 -42 -20 -15 0 -28 -4 -28 -10 0 -5 -13 -10 -30 -10 -16 0
-30 -4 -30 -10 0 -5 -9 -10 -20 -10 -11 0 -20 -4 -20 -10 0 -5 -13 -10 -30
-10 -16 0 -30 -4 -30 -10 0 -5 -13 -10 -30 -10 -16 0 -30 -4 -30 -10 0 -5 -13
-10 -30 -10 -16 0 -30 -4 -30 -10 0 -5 -13 -10 -30 -10 -16 0 -30 -4 -30 -10
0 -5 -13 -10 -30 -10 -16 0 -30 -4 -30 -10 0 -5 -13 -10 -30 -10 -16 0 -30 -4
-30 -10 0 -5 -13 -10 -30 -10 -16 0 -30 -4 -30 -10 0 -5 -13 -10 -30 -10 -16
0 -30 -5 -30 -11 0 -7 -12 -10 -30 -7 -21 3 -30 0 -30 -10 0 -10 -9 -13 -30
-10 -21 3 -30 0 -30 -10 0 -10 -9 -13 -30 -10 -21 3 -30 0 -30 -10 0 -10 -9
-13 -30 -10 -21 3 -30 0 -30 -10 0 -10 -9 -13 -30 -10 -22 3 -30 0 -30 -10 0
-9 -7 -13 -20 -9 -11 3 -27 -2 -35 -10 -9 -8 -22 -13 -30 -10 -7 3 -19 -1 -26
-9 -7 -9 -21 -13 -30 -11 -10 3 -24 -2 -30 -10 -7 -8 -21 -12 -30 -10 -10 3
-24 -2 -30 -10 -7 -8 -21 -12 -31 -10 -12 3 -18 0 -18 -10 0 -11 -8 -14 -30
-11 -22 3 -30 0 -30 -10 0 -9 -7 -13 -20 -9 -10 3 -25 -2 -31 -10 -7 -8 -21
-12 -31 -10 -12 3 -18 0 -18 -10 0 -10 -6 -14 -20 -10 -10 3 -25 -2 -31 -10
-7 -8 -21 -12 -30 -10 -10 3 -24 -2 -30 -10 -7 -8 -21 -12 -31 -10 -12 3 -18
0 -18 -10 0 -10 -6 -14 -20 -10 -10 3 -25 -2 -31 -10 -7 -8 -21 -12 -31 -10
-12 3 -18 0 -18 -10 0 -10 -6 -14 -20 -10 -11 3 -22 1 -25 -4 -9 -14 -73 -41
-84 -35 -5 3 -15 0 -23 -7 -21 -20 -148 -81 -155 -74 -3 4 -12 2 -20 -4 -21
-18 -426 -219 -440 -219 -7 0 -13 -4 -13 -10 0 -5 -7 -10 -16 -10 -9 0 -24 -8
-33 -18 -18 -19 -137 -82 -156 -82 -7 0 -15 -6 -18 -14 -6 -15 -62 -46 -82
-46 -7 0 -15 -6 -18 -14 -3 -8 -22 -22 -41 -31 -20 -10 -36 -21 -36 -26 0 -5
-6 -9 -13 -9 -7 0 -22 -8 -33 -17 -27 -24 -61 -43 -76 -43 -7 0 -19 -9 -26
-20 -7 -11 -20 -20 -30 -20 -9 0 -23 -9 -30 -20 -7 -11 -19 -20 -27 -20 -8 0
-28 -14 -43 -30 -16 -16 -34 -30 -39 -30 -5 0 -18 -9 -28 -20 -10 -11 -24 -20
-31 -20 -8 0 -27 -13 -42 -30 -16 -16 -34 -30 -40 -30 -7 0 -25 -13 -40 -30
-16 -16 -34 -30 -40 -30 -7 0 -25 -13 -40 -30 -16 -16 -34 -30 -40 -30 -6 0
-28 -18 -50 -40 -21 -22 -44 -40 -50 -40 -6 0 -28 -18 -50 -40 -21 -22 -43
-40 -49 -40 -5 0 -41 -31 -80 -70 -39 -38 -75 -70 -81 -70 -5 0 -46 -36 -91
-80 -44 -44 -85 -80 -90 -80 -12 0 -401 -390 -401 -402 0 -6 -49 -59 -110
-120 -60 -60 -110 -114 -110 -120 0 -6 -27 -37 -60 -70 -33 -32 -60 -64 -60
-70 0 -7 -22 -33 -50 -60 -27 -26 -50 -53 -50 -60 0 -6 -18 -29 -40 -50 -22
-22 -40 -44 -40 -50 0 -6 -18 -29 -40 -50 -22 -22 -40 -44 -40 -50 0 -6 -13
-24 -30 -40 -16 -15 -30 -33 -30 -40 0 -6 -13 -24 -30 -40 -16 -15 -30 -33
-30 -40 0 -6 -13 -24 -30 -40 -16 -15 -30 -33 -30 -40 0 -6 -13 -24 -30 -40
-16 -15 -30 -35 -30 -43 0 -8 -9 -20 -20 -27 -11 -7 -20 -21 -20 -30 0 -10 -4
-18 -8 -18 -5 0 -15 -12 -23 -27 -7 -16 -26 -40 -41 -56 -16 -15 -28 -34 -28
-42 0 -8 -9 -20 -20 -27 -11 -7 -20 -21 -20 -30 0 -10 -9 -23 -20 -30 -11 -7
-20 -21 -20 -30 0 -10 -9 -23 -20 -30 -11 -7 -20 -21 -20 -30 0 -10 -9 -23
-20 -30 -11 -7 -20 -21 -20 -30 0 -10 -4 -18 -10 -18 -5 0 -10 -9 -10 -20 0
-11 -4 -20 -9 -20 -5 0 -16 -16 -26 -36 -9 -19 -23 -38 -31 -41 -8 -3 -14 -14
-14 -24 0 -10 -4 -19 -10 -19 -5 0 -10 -9 -10 -20 0 -11 -4 -20 -8 -20 -5 0
-20 -21 -33 -47 -13 -27 -29 -54 -36 -61 -7 -7 -20 -30 -30 -50 -10 -20 -25
-46 -35 -56 -10 -11 -18 -26 -18 -33 0 -7 -4 -13 -10 -13 -5 0 -10 -9 -10 -20
0 -11 -4 -20 -9 -20 -4 0 -28 -39 -52 -87 -24 -49 -51 -95 -61 -104 -10 -9
-18 -20 -18 -25 0 -18 -105 -219 -122 -235 -10 -9 -18 -24 -18 -33 0 -9 -4
-16 -10 -16 -5 0 -10 -6 -10 -12 0 -16 -169 -356 -180 -363 -5 -3 -6 -14 -3
-25 4 -14 0 -20 -11 -20 -10 0 -14 -5 -11 -11 7 -10 -79 -194 -95 -204 -4 -3
-6 -14 -3 -25 4 -14 0 -20 -11 -20 -10 0 -14 -5 -11 -11 7 -10 -59 -154 -76
-165 -5 -3 -7 -10 -3 -15 6 -11 -51 -134 -73 -157 -7 -8 -10 -18 -7 -23 6 -11
-21 -75 -35 -84 -5 -3 -7 -14 -4 -25 4 -14 0 -20 -11 -20 -10 0 -14 -5 -11
-11 7 -10 -39 -114 -55 -124 -4 -3 -6 -14 -3 -25 4 -14 0 -20 -11 -20 -10 0
-14 -5 -10 -11 6 -11 -31 -93 -53 -116 -6 -7 -9 -22 -6 -33 4 -14 0 -20 -10
-20 -10 0 -13 -6 -10 -20 4 -14 0 -20 -11 -20 -10 0 -14 -5 -11 -10 9 -14 -37
-110 -52 -110 -7 0 -10 -7 -7 -15 4 -9 -3 -23 -15 -34 -11 -10 -21 -26 -21
-35 0 -9 -4 -16 -10 -16 -5 0 -10 -9 -10 -20 0 -11 -7 -20 -15 -20 -8 0 -12
-6 -9 -14 3 -8 -8 -29 -25 -47 -17 -17 -31 -36 -31 -41 0 -15 -149 -158 -165
-158 -8 0 -15 -4 -15 -10 0 -5 -9 -10 -20 -10 -11 0 -20 -4 -20 -10 0 -6 -48
-10 -125 -10 -77 0 -125 4 -125 10 0 6 -9 10 -20 10 -11 0 -20 6 -20 14 0 9
-7 12 -20 9 -14 -4 -20 0 -20 10 0 10 -6 13 -20 10 -14 -4 -20 0 -20 11 0 9
-6 13 -14 10 -8 -3 -25 4 -37 15 -13 12 -26 21 -31 21 -4 0 -22 13 -40 30 -17
16 -35 30 -41 30 -13 0 -337 324 -337 338 0 6 -18 28 -40 50 -22 21 -40 44
-40 50 0 6 -18 28 -40 50 -22 21 -40 44 -40 50 0 7 -14 25 -30 40 -17 16 -30
34 -30 40 0 7 -14 25 -30 40 -17 16 -30 35 -30 43 0 8 -9 20 -20 27 -11 7 -20
19 -20 27 0 8 -12 27 -28 42 -15 16 -34 40 -41 55 -8 16 -18 28 -23 28 -4 0
-8 8 -8 18 0 9 -9 23 -20 30 -11 7 -20 21 -20 31 0 10 -6 21 -14 24 -8 3 -22
22 -31 41 -10 20 -21 36 -26 36 -5 0 -9 6 -9 13 0 7 -8 22 -17 33 -24 27 -43
61 -43 76 0 7 -9 19 -20 26 -11 7 -20 18 -20 25 0 7 -8 22 -18 33 -10 10 -25
36 -35 56 -10 20 -23 43 -30 50 -15 17 -57 97 -57 110 0 6 -8 18 -18 27 -10 9
-26 33 -35 53 -10 20 -23 43 -30 50 -14 15 -117 219 -117 232 0 5 -8 16 -18
25 -26 23 -245 468 -237 480 3 6 -1 11 -11 11 -11 0 -15 6 -11 20 3 11 1 22
-3 25 -15 9 -102 194 -96 204 3 5 0 15 -7 23 -17 18 -75 140 -75 158 0 8 -3
26 -7 40 -4 14 -8 38 -10 54 -2 16 -7 31 -12 35 -16 12 -35 59 -29 70 4 6 0
11 -10 11 -11 0 -15 6 -11 20 3 10 -2 25 -10 31 -8 7 -12 21 -10 31 3 12 0 18
-10 18 -10 0 -14 6 -10 20 3 10 -2 25 -10 31 -8 7 -12 21 -10 31 3 12 0 18
-10 18 -10 0 -14 6 -10 20 3 10 -2 25 -10 31 -8 7 -12 21 -10 31 3 10 -2 25
-10 33 -8 9 -12 22 -9 30 3 9 -1 15 -10 15 -11 0 -15 6 -11 20 3 10 -2 25 -10
31 -8 7 -12 21 -10 30 3 10 -2 24 -9 30 -8 7 -14 19 -13 28 1 9 -3 35 -10 59
-6 23 -9 46 -6 51 3 5 -2 17 -11 25 -9 9 -14 23 -11 31 3 7 -1 19 -9 26 -9 7
-13 21 -11 30 3 10 -2 24 -10 30 -8 7 -12 21 -10 30 3 10 -2 24 -10 30 -8 7
-12 21 -10 30 3 10 -2 24 -10 30 -8 7 -12 21 -10 30 3 10 -1 23 -9 30 -7 6
-14 21 -14 33 -3 72 -7 103 -14 114 -4 7 -5 19 -2 27 3 8 -2 21 -11 30 -9 9
-13 26 -10 40 3 18 0 25 -11 25 -10 0 -13 8 -10 30 3 21 0 30 -9 30 -10 0 -14
9 -11 29 1 16 -4 36 -11 45 -7 9 -11 27 -9 41 4 17 1 25 -9 25 -9 0 -14 12
-14 33 -1 69 -5 113 -13 125 -4 7 -6 29 -5 50 2 26 -1 36 -10 34 -8 -2 -12 7
-10 26 2 16 -3 37 -10 46 -7 9 -11 27 -9 41 3 14 -1 30 -9 36 -7 7 -14 31 -14
53 -1 78 -5 121 -13 134 -4 7 -6 29 -5 50 2 26 -1 36 -10 34 -10 -2 -12 10 -9
48 2 37 -1 50 -10 50 -10 0 -13 14 -11 48 1 26 -3 66 -10 89 -6 23 -11 70 -10
103 1 35 -3 66 -9 72 -7 7 -12 38 -12 70 0 34 -4 58 -11 58 -6 0 -10 28 -10
73 0 39 -3 92 -6 117 -3 25 -7 96 -9 159 -2 63 -8 119 -14 125 -6 6 -10 63
-10 138 0 79 -4 128 -10 128 -7 0 -10 158 -10 455 0 297 3 455 10 455 6 0 10
49 10 128 0 75 4 132 10 138 6 6 12 62 14 125 2 63 6 130 9 149 4 19 6 72 6
118 0 51 4 82 10 82 7 0 11 24 11 58 0 32 5 63 12 70 6 6 10 37 9 72 -1 33 4
80 10 103 7 23 11 63 10 90 -2 33 1 47 11 47 9 0 12 13 10 50 -3 38 -1 50 9
48 9 -2 12 8 10 34 -1 21 1 43 5 50 7 11 12 60 13 146 0 20 5 32 14 32 9 0 12
11 9 35 -2 21 1 42 9 51 8 9 12 30 10 46 -2 19 2 28 10 26 9 -2 12 8 10 34 -1
21 1 43 5 50 8 12 12 56 13 126 0 20 5 32 14 32 9 0 12 9 9 28 -2 17 2 33 12
41 8 7 12 19 9 27 -3 8 1 22 8 30 8 9 12 29 11 45 -3 20 1 29 11 29 10 0 13 8
10 25 -3 14 1 31 11 40 9 9 13 21 10 26 -3 6 -2 18 2 27 8 19 13 60 13 108 1
17 7 36 15 43 8 6 12 20 9 30 -2 9 2 23 10 30 8 6 13 20 10 30 -2 9 2 23 10
30 8 6 13 20 10 30 -2 9 2 23 10 30 8 6 13 20 10 30 -2 9 2 23 11 30 8 7 12
19 9 26 -3 8 2 22 11 31 9 8 14 20 11 25 -3 5 0 28 6 51 7 24 11 50 10 59 -1
9 5 21 13 28 8 7 12 19 9 27 -3 8 2 23 11 33 9 10 13 20 10 24 -7 7 21 73 35
82 5 3 7 13 4 23 -2 10 2 24 10 31 8 6 13 21 10 31 -4 14 0 20 10 20 10 0 13
6 10 18 -2 10 2 24 10 31 8 6 13 21 10 31 -4 14 0 20 11 20 10 0 14 5 10 11
-6 11 12 54 33 76 6 7 9 21 6 31 -2 10 2 24 10 31 8 6 13 21 10 32 -4 13 -1
19 7 17 7 -2 14 8 15 22 2 14 6 36 10 50 4 14 7 35 6 48 0 14 5 22 15 22 8 0
12 5 9 11 -7 10 19 74 34 84 5 3 7 14 4 25 -4 14 0 20 11 20 10 0 14 5 11 11
-7 10 69 173 91 196 7 7 10 22 7 33 -4 14 0 20 11 20 10 0 14 5 11 11 -9 14
196 428 212 429 7 0 10 7 7 15 -4 9 3 23 15 34 11 10 21 22 21 27 0 13 103
217 117 231 6 7 24 39 39 70 16 32 34 64 41 71 7 8 22 34 34 58 11 25 26 48
34 51 8 3 15 11 15 18 0 20 31 76 46 82 8 3 14 14 14 24 0 10 9 24 20 31 11 7
20 18 20 24 0 20 32 75 46 81 8 3 14 11 14 19 0 17 18 50 43 78 9 11 17 24 17
28 0 5 9 18 20 30 11 12 20 28 20 35 0 7 4 13 8 13 5 0 15 12 23 28 8 15 22
36 32 46 9 11 17 26 17 33 0 7 4 13 8 13 5 0 15 12 23 28 7 15 26 39 41 55 16
15 28 34 28 42 0 8 4 15 8 15 5 0 15 12 23 28 7 15 26 39 41 55 16 15 28 33
28 41 0 7 9 21 20 31 11 10 20 23 20 28 0 5 14 23 30 39 17 15 30 33 30 40 0
6 18 29 40 50 22 22 40 44 40 50 0 6 14 24 30 40 17 15 30 33 30 40 0 6 18 28
40 49 22 21 40 44 40 50 0 7 18 29 40 50 22 21 40 44 40 50 0 7 22 34 50 61
27 26 50 54 50 61 0 6 32 43 70 80 39 37 70 73 70 80 0 7 36 47 80 90 44 42
80 82 80 89 0 15 622 638 637 638 7 0 57 45 111 100 54 55 104 100 110 100 6
0 38 27 70 60 33 33 65 60 71 60 7 0 29 18 50 40 21 22 43 40 50 40 7 0 34 23
60 50 26 28 53 50 60 50 6 0 29 18 50 40 21 22 43 40 50 40 7 0 24 14 38 30
13 17 31 30 38 30 7 0 31 18 53 40 21 22 45 40 53 40 8 0 20 9 27 20 7 11 19
20 28 20 8 0 27 14 41 30 13 17 31 30 39 30 8 0 27 14 42 30 16 17 35 30 43
30 8 0 20 9 27 20 7 11 20 20 30 20 9 0 23 9 30 20 7 11 20 20 30 20 9 0 23 9
30 20 7 11 19 20 27 20 8 0 28 14 43 30 16 17 33 30 39 30 5 0 18 8 29 18 10
9 31 23 47 31 15 8 27 18 27 23 0 4 6 8 13 8 7 0 22 8 33 18 27 23 61 42 77
42 7 0 19 9 27 20 8 11 19 20 25 20 6 0 20 8 31 18 23 21 101 62 118 62 6 0
18 9 26 20 8 11 22 20 32 20 10 0 18 5 18 10 0 6 7 10 16 10 9 0 24 8 33 18
21 22 57 42 76 42 8 0 15 5 15 10 0 6 9 10 19 10 10 0 21 6 24 14 5 13 101 66
120 66 5 0 18 10 28 21 11 12 25 19 34 15 8 -3 15 0 15 7 1 15 535 281 549
273 5 -3 15 0 23 7 23 22 186 99 197 93 5 -4 12 -2 16 3 9 16 113 63 124 57 5
-4 12 -2 16 4 9 15 73 42 84 36 5 -4 12 -2 16 3 9 15 115 64 122 57 4 -3 14 1
24 10 10 9 25 14 33 11 9 -4 18 -2 21 3 9 14 75 43 82 36 4 -3 14 1 24 10 10
9 25 14 33 11 9 -4 18 -2 21 3 9 14 75 43 82 36 4 -3 14 1 24 10 10 9 25 14
33 11 8 -3 20 1 27 9 7 9 21 13 30 11 10 -3 24 2 30 10 7 8 21 12 30 10 10 -3
24 2 30 10 7 8 21 12 30 10 10 -3 24 2 30 10 7 8 21 12 30 10 10 -3 24 2 30
10 7 8 25 13 39 11 15 -1 35 3 44 11 8 7 22 11 30 8 8 -3 20 1 27 9 7 9 21 13
30 11 10 -3 24 2 30 10 7 8 21 12 30 10 10 -3 24 2 30 10 7 8 25 13 39 11 15
-1 35 3 43 11 9 7 22 11 29 8 7 -2 26 2 41 10 16 8 35 12 42 9 8 -3 19 2 26
10 7 8 25 14 39 12 15 -1 35 3 43 11 9 7 27 11 40 9 13 -1 32 3 41 11 9 7 27
11 41 9 15 -3 30 1 37 9 7 9 26 13 49 12 20 -2 44 3 52 10 9 7 27 11 40 9 13
-1 32 3 41 11 9 7 27 11 41 9 15 -3 30 1 37 9 7 9 26 13 49 12 20 -2 44 3 53
10 8 7 30 11 49 10 19 -2 42 2 50 9 8 7 32 12 54 11 21 -2 48 3 61 10 13 7 38
11 57 10 18 -2 40 3 48 10 9 7 35 11 61 10 25 -2 51 3 60 10 8 7 34 11 60 10
25 -2 51 3 60 10 9 7 36 12 70 10 32 -2 61 2 70 10 9 7 40 11 83 10 38 -1 79
3 91 10 13 7 53 11 90 10 38 -1 78 3 90 10 14 7 58 11 111 10 51 -1 97 3 109
10 14 8 69 11 151 10 77 0 137 3 148 10 26 15 1195 15 1210 0z m-332 -2059
c188 -12 299 -25 490 -59 152 -27 397 -93 540 -144 178 -63 221 -80 264 -103
25 -13 51 -24 58 -24 17 0 336 -161 348 -175 6 -7 29 -21 53 -31 23 -10 42
-22 42 -27 0 -5 7 -7 15 -3 9 3 19 -3 25 -14 6 -11 22 -23 35 -26 14 -3 25
-10 25 -16 0 -5 14 -14 30 -19 17 -6 30 -15 30 -20 0 -6 14 -15 30 -20 17 -6
30 -15 30 -19 0 -5 17 -19 38 -31 20 -13 41 -29 45 -36 4 -7 15 -13 24 -13 9
0 28 -14 42 -31 14 -16 33 -31 43 -33 9 -1 35 -23 58 -49 23 -26 48 -47 55
-47 16 0 448 -430 451 -450 2 -8 24 -35 51 -59 26 -24 48 -51 50 -60 1 -9 16
-28 32 -42 17 -14 31 -33 31 -42 0 -8 12 -25 27 -37 15 -11 28 -28 29 -37 2
-8 12 -24 23 -34 12 -11 21 -26 21 -35 0 -8 6 -17 14 -20 8 -3 19 -19 25 -35
5 -16 14 -29 19 -29 6 0 13 -11 16 -25 3 -13 15 -29 26 -35 11 -6 17 -16 14
-25 -4 -8 -2 -15 3 -15 5 0 17 -19 27 -42 10 -24 24 -48 31 -53 11 -9 165
-318 210 -420 62 -143 146 -403 189 -585 15 -63 31 -131 36 -150 8 -33 18 -95
40 -232 55 -360 51 -867 -9 -1223 -5 -33 -15 -89 -21 -125 -12 -71 -72 -314
-97 -394 -44 -141 -106 -318 -138 -391 -41 -95 -199 -411 -210 -420 -7 -5 -21
-29 -31 -52 -10 -24 -22 -43 -27 -43 -5 0 -7 -7 -3 -15 3 -9 -3 -19 -14 -25
-11 -6 -23 -22 -26 -35 -3 -14 -10 -25 -16 -25 -5 0 -14 -13 -19 -29 -6 -16
-17 -32 -25 -35 -8 -3 -14 -12 -14 -20 0 -9 -9 -24 -21 -35 -11 -10 -21 -26
-23 -34 -1 -9 -14 -26 -29 -37 -15 -12 -27 -29 -27 -37 0 -9 -14 -28 -31 -42
-16 -14 -31 -33 -32 -42 -2 -9 -24 -36 -50 -60 -27 -24 -49 -51 -51 -59 -3
-20 -435 -450 -451 -450 -7 0 -32 -21 -56 -47 -24 -26 -50 -48 -59 -50 -8 -1
-27 -16 -41 -32 -14 -17 -31 -31 -37 -31 -15 0 -104 -67 -115 -86 -4 -8 -17
-14 -28 -14 -11 0 -22 -6 -25 -14 -3 -8 -19 -19 -35 -25 -16 -5 -29 -15 -29
-20 0 -6 -7 -11 -15 -11 -8 0 -24 -9 -35 -20 -11 -11 -26 -20 -34 -20 -8 0
-18 -5 -21 -10 -3 -6 -26 -19 -50 -30 -24 -11 -45 -23 -47 -28 -3 -9 -329
-172 -343 -172 -4 0 -36 -13 -69 -29 -34 -16 -86 -37 -116 -47 -30 -10 -60
-22 -66 -26 -11 -8 -124 -44 -269 -86 -79 -23 -210 -54 -300 -72 -33 -6 -69
-14 -80 -16 -96 -23 -281 -43 -512 -55 -302 -17 -685 6 -923 54 -14 3 -52 11
-85 17 -90 18 -221 49 -300 72 -133 39 -260 79 -270 87 -5 4 -35 15 -65 25
-30 10 -82 31 -116 47 -33 16 -65 29 -70 29 -13 0 -338 164 -342 173 -2 4 -23
16 -47 27 -24 11 -47 24 -50 30 -3 5 -15 10 -26 10 -10 0 -19 5 -19 10 0 6
-12 16 -27 23 -16 6 -32 17 -36 24 -4 7 -14 13 -21 13 -7 0 -25 11 -40 25 -15
14 -33 25 -41 25 -7 0 -15 4 -17 9 -4 11 -110 91 -121 91 -4 0 -18 11 -30 26
-12 14 -29 26 -37 27 -9 2 -35 24 -59 50 -24 26 -49 47 -55 47 -16 0 -449 431
-452 450 -1 8 -24 34 -50 57 -26 23 -49 50 -50 60 -2 10 -17 30 -33 44 -17 14
-31 33 -31 42 0 8 -12 25 -27 37 -15 11 -28 28 -29 37 -2 8 -12 24 -23 34 -12
11 -21 26 -21 35 0 8 -6 17 -14 20 -8 3 -19 19 -25 35 -5 16 -14 29 -19 29 -6
0 -13 11 -16 25 -3 13 -15 29 -26 35 -11 6 -17 16 -14 25 4 8 2 15 -3 15 -5 0
-17 19 -27 43 -10 23 -24 47 -31 52 -15 13 -185 353 -185 371 0 7 -9 28 -20
46 -24 42 -86 210 -143 394 -25 80 -85 323 -97 394 -6 36 -16 92 -21 125 -62
367 -62 915 0 1280 5 33 15 89 21 125 12 71 72 314 97 394 58 187 115 342 147
402 14 27 26 54 26 61 0 17 161 336 175 348 7 6 21 29 31 53 10 23 22 42 27
42 5 0 7 7 3 15 -3 9 3 19 14 25 11 6 23 22 26 35 3 14 10 25 16 25 5 0 14 13
19 29 6 16 17 32 25 35 8 3 14 12 14 20 0 9 9 24 21 35 11 10 21 26 23 34 1 9
14 26 29 37 15 12 27 29 27 37 0 9 14 28 31 42 16 14 31 33 32 42 2 9 24 36
50 60 27 24 49 51 51 59 4 20 427 443 446 446 8 2 35 24 60 51 25 26 52 48 60
50 8 1 27 16 41 32 14 17 31 31 37 31 12 0 89 55 118 85 9 8 22 15 30 15 8 0
17 6 20 14 3 8 19 19 35 25 16 5 29 14 29 19 0 6 11 13 25 16 13 3 29 15 35
26 6 11 16 17 25 14 8 -4 15 -2 15 3 0 5 19 17 43 27 23 10 47 24 52 30 12 14
332 176 348 176 5 0 37 13 71 29 97 46 135 61 156 61 10 0 21 4 24 9 3 5 52
23 108 41 57 17 114 36 128 41 26 9 203 54 279 70 340 75 731 102 1126 79z"/>
<path d="M12710 12369 c0 -5 5 -7 10 -4 6 3 10 8 10 11 0 2 -4 4 -10 4 -5 0
-10 -5 -10 -11z"/>
<path d="M11305 12350 c3 -5 8 -10 11 -10 2 0 4 5 4 10 0 6 -5 10 -11 10 -5 0
-7 -4 -4 -10z"/>
<path d="M12670 12349 c0 -5 5 -7 10 -4 6 3 10 8 10 11 0 2 -4 4 -10 4 -5 0
-10 -5 -10 -11z"/>
<path d="M11354 12321 c11 -12 24 -17 34 -13 14 6 13 7 -5 10 -13 2 -23 8 -23
13 0 5 -5 9 -12 9 -6 0 -4 -8 6 -19z"/>
<path d="M12625 12330 c4 -6 11 -8 16 -5 14 9 11 15 -7 15 -8 0 -12 -5 -9 -10z"/>
<path d="M12570 12316 c0 -9 30 -14 35 -6 4 6 -3 10 -14 10 -12 0 -21 -2 -21
-4z"/>
<path d="M11405 12290 c3 -5 12 -7 20 -3 21 7 19 13 -6 13 -11 0 -18 -4 -14
-10z"/>
<path d="M12531 12274 c-12 -14 -21 -27 -19 -30 3 -2 17 10 33 26 16 17 25 30
19 29 -5 0 -20 -11 -33 -25z"/>
<path d="M11445 12270 c3 -5 8 -10 11 -10 2 0 4 5 4 10 0 6 -5 10 -11 10 -5 0
-7 -4 -4 -10z"/>
<path d="M11467 12245 c-4 -8 -2 -17 3 -20 6 -4 10 3 10 14 0 25 -6 27 -13 6z"/>
<path d="M12493 12195 c0 -27 2 -38 4 -22 2 15 2 37 0 50 -2 12 -4 0 -4 -28z"/>
<path d="M11492 12195 c0 -16 2 -22 5 -12 2 9 2 23 0 30 -3 6 -5 -1 -5 -18z"/>
<path d="M11466 12162 c-2 -4 -1 -14 5 -22 7 -12 9 -10 9 8 0 23 -5 28 -14 14z"/>
<path d="M12510 12146 c0 -11 30 -39 36 -34 2 3 -5 13 -16 23 -11 10 -20 15
-20 11z"/>
<path d="M11445 12120 c-3 -5 -1 -10 4 -10 6 0 11 5 11 10 0 6 -2 10 -4 10 -3
0 -8 -4 -11 -10z"/>
<path d="M11405 12100 c-4 -6 3 -10 14 -10 25 0 27 6 6 13 -8 4 -17 2 -20 -3z"/>
<path d="M12560 12100 c-12 -8 -10 -10 8 -10 13 0 20 4 17 10 -7 12 -6 12 -25
0z"/>
<path d="M11365 12080 c-4 -6 3 -10 14 -10 25 0 27 6 6 13 -8 4 -17 2 -20 -3z"/>
<path d="M12600 12080 c-12 -8 -10 -10 8 -10 13 0 20 4 17 10 -7 12 -6 12 -25
0z"/>
<path d="M11325 12060 c-3 -5 1 -10 10 -10 9 0 13 5 10 10 -3 6 -8 10 -10 10
-2 0 -7 -4 -10 -10z"/>
<path d="M12645 12060 c-3 -5 1 -10 10 -10 9 0 13 5 10 10 -3 6 -8 10 -10 10
-2 0 -7 -4 -10 -10z"/>
<path d="M11285 12040 c-3 -5 -1 -10 4 -10 6 0 11 5 11 10 0 6 -2 10 -4 10 -3
0 -8 -4 -11 -10z"/>
<path d="M12690 12040 c0 -5 5 -10 11 -10 5 0 7 5 4 10 -3 6 -8 10 -11 10 -2
0 -4 -4 -4 -10z"/>
<path d="M11225 12020 c-3 -5 -1 -10 4 -10 6 0 11 5 11 10 0 6 -2 10 -4 10 -3
0 -8 -4 -11 -10z"/>
<path d="M12730 12020 c0 -5 5 -10 11 -10 5 0 7 5 4 10 -3 6 -8 10 -11 10 -2
0 -4 -4 -4 -10z"/>
</g>
</svg>
